<svg xmlns="http://www.w3.org/2000/svg" viewBox="0 0 640 420" width="640" height="420" font-family="Helvetica,Arial,sans-serif">
    <rect x="0" y="0" width="640" height="52" fill="#022851"/>
    <text x="16" y="22" fill="#fff" font-size="15" font-weight="bold">Diabetic Nephropathy</text>
    <text x="16" y="40" fill="#ffbf00" font-size="11">&amp; Dyslipidemia</text><circle cx="320" cy="200" r="22.0" fill="#00b2e3" stroke="#022851" stroke-width="1.5"/><circle cx="312.0" cy="194.0" r="4.0" fill="#022851" stroke="#022851" stroke-width="1.5"/><circle cx="326.0" cy="192.0" r="4.0" fill="#022851" stroke="#022851" stroke-width="1.5"/><circle cx="328.0" cy="206.0" r="4.0" fill="#022851" stroke="#022851" stroke-width="1.5"/><circle cx="314.0" cy="208.0" r="4.0" fill="#022851" stroke="#022851" stroke-width="1.5"/><path d="M 290.0 200 a 30 30 0 0 1 60 0" fill="none" stroke="#022851" stroke-width="2"/><path d="M 350.0 200 q 15 -20 30 -10 q 15 10 30 -5" fill="none" stroke="#022851" stroke-width="2"/><path d="M 410.0 185.0 q 5 30 -10 50 q -15 20 5 40" fill="none" stroke="#022851" stroke-width="2"/><path d="M 405.0 275.0 q 20 5 30 -10" fill="none" stroke="#022851" stroke-width="2"/><text x="628" y="410" fill="#5b6b7a" font-size="9" text-anchor="end">CNN Exam Prep - Study Diagram</text></svg>